<?xml version="1.0" ?><svg viewBox="0 0 64 64" xmlns="http://www.w3.org/2000/svg"><defs><style>.cls-1{fill:#c5e260;}.cls-2{fill:#a67c52;}.cls-3{fill:#fddfb1;}.cls-4{fill:#fb7e2d;}.cls-5{fill:#fc9857;}.cls-6{fill:#f2f2f2;}.cls-7{fill:#ffe441;}.cls-8{fill:#bfb055;}.cls-9{fill:#ffeb71;}.cls-10{fill:#b5b5b5;}.cls-11{fill:#ccc;}.cls-12{fill:#807221;}.cls-13{fill:#bc5f22;}</style></defs><title/><g data-name="Layer 27" id="Layer_27"><path class="cls-1" d="M57,31a1,1,0,0,1-1-1v-.76a9.14,9.14,0,0,0-2.71-6.53l1.42-1.42A11.25,11.25,0,0,1,57,24.59a11.25,11.25,0,0,1,2.29-3.3l1.42,1.42A9.14,9.14,0,0,0,58,29.24V30A1,1,0,0,1,57,31Z"/><polyline class="cls-2" points="40 15 51 15 58 17 51 19 40 19"/><polygon class="cls-3" points="51 15 58 17 51 19 51 15"/><polyline class="cls-2" points="40 7 51 7 58 9 51 11 40 11"/><polygon class="cls-3" points="51 7 58 9 51 11 51 7"/><path class="cls-4" d="M52.35,48H57v2a12,12,0,0,1-2.31,7.08h0A39.46,39.46,0,0,0,57,62h0a39.71,39.71,0,0,0,5-19.3V35a5,5,0,0,0-5-5h0a5,5,0,0,0-5,5v7.7a40.67,40.67,0,0,0,.35,5.3Z"/><path class="cls-5" d="M59,35a5,5,0,0,0-3.5-4.75A5,5,0,0,0,52,35v7.7a40.67,40.67,0,0,0,.35,5.3H57v2a12,12,0,0,1-2.31,7.08h0c.25.64.53,1.27.81,1.9A39.76,39.76,0,0,0,59,42.7Z"/><polyline class="cls-6" points="40 54 40 2 2 2 2 54 34 54"/><path class="cls-7" d="M33,48H57a0,0,0,0,1,0,0v2A12,12,0,0,1,45,62h0A12,12,0,0,1,33,50V48A0,0,0,0,1,33,48Z"/><path class="cls-8" d="M37,48v2a8,8,0,0,0,8,8h0a8,8,0,0,0,8-8V48"/><rect class="cls-7" height="4" width="4" x="6" y="20"/><rect class="cls-9" height="4" width="2" x="6" y="20"/><rect class="cls-7" height="4" width="4" x="6" y="28"/><rect class="cls-9" height="4" width="2" x="6" y="28"/><rect class="cls-7" height="4" width="4" x="6" y="36"/><rect class="cls-9" height="4" width="2" x="6" y="36"/><rect class="cls-7" height="4" width="4" x="6" y="44"/><rect class="cls-9" height="4" width="2" x="6" y="44"/><rect class="cls-10" height="10" width="30" x="6" y="6"/><rect class="cls-11" height="10" width="27" x="6" y="6"/><rect class="cls-11" height="2" width="23" x="13" y="19"/><rect class="cls-11" height="2" width="23" x="13" y="23"/><rect class="cls-11" height="2" width="23" x="13" y="27"/><rect class="cls-11" height="2" width="23" x="13" y="31"/><rect class="cls-11" height="2" width="23" x="13" y="35"/><rect class="cls-11" height="2" width="23" x="13" y="39"/><rect class="cls-11" height="2" width="23" x="13" y="43"/><rect class="cls-11" height="2" width="17" x="13" y="47"/><path class="cls-12" d="M37.9,53.68a8.16,8.16,0,0,0,1.16,1.67l6.65-6.64L45,48H43.59Z"/><path class="cls-12" d="M45,58a8.26,8.26,0,0,0,1-.07V50.41l4.94,4.94a8.16,8.16,0,0,0,1.16-1.67L46.41,48H44v9.93A8.26,8.26,0,0,0,45,58Z"/><rect class="cls-13" height="2" width="5" x="52" y="35"/><rect class="cls-13" height="2" width="5" x="57" y="39"/><path class="cls-13" d="M52,43c0,.67,0,1.33.07,2H57V43Z"/></g></svg>